#!OML:ASF I:\golf\golf\golf 2\Subject 1\2002-09-07\Subject1.ASF
:FULLY-SPECIFIED
:DEGREES
466
root -2.16388 17.5699 -6.6788 21.5468 31.7698 -3.77223
lowerback 23.131 3.69121 1.27549
upperback 9.24118 5.59326 6.73285
thorax -3.29128 2.7445 5.11943
lowerneck -19.7705 -7.44359 -1.5606
upperneck 6.21015 -9.89551 2.85646
head 5.23065 -4.68319 0.147987
rclavicle -7.31528e-014 4.77083e-015
rhumerus -7.95974 11.0737 -62.0082
rradius 36.983
rwrist -18.6316
rhand -22.9096 11.9699
rfingers 7.12502
rthumb 3.53037 -17.9806
lclavicle -7.31528e-014 4.77083e-015
lhumerus -21.3778 -17.3299 91.1385
lradius 55.3562
lwrist 13.336
lhand -13.198 30.911
lfingers 7.12502
lthumb 12.9023 60.4922
rfemur -53.0593 -2.38665 19.8322
rtibia 26.8553
rfoot 5.6756 6.042
rtoes 1.94823
lfemur -35.9241 0.325012 -16.07
ltibia 38.8984
lfoot -21.2514 -10.859
ltoes -1.03637
467
root -2.14081 17.5814 -6.7348 20.8782 31.4007 -3.99899
lowerback 22.6432 3.62462 1.19125
upperback 9.10825 5.46515 6.60684
thorax -3.17846 2.68294 5.08116
lowerneck -20.0721 -7.42009 -1.56572
upperneck 6.3558 -9.89143 3.10481
head 5.3377 -4.65417 0.212321
rclavicle 4.92986e-014 4.77083e-015
rhumerus -8.76863 10.4579 -62.7039
rradius 36.9058
rwrist -18.6001
rhand -23.4058 12.1382
rfingers 7.12502
rthumb 3.05117 -17.8197
lclavicle 4.92986e-014 4.77083e-015
lhumerus -21.4763 -17.0299 90.9578
lradius 54.6526
lwrist 13.0391
lhand -13.09 31.0808
lfingers 7.12502
lthumb 13.0064 60.6554
rfemur -52.3531 -2.30575 19.8682
rtibia 26.3036
rfoot 6.1736 6.23693
rtoes 3.67628
lfemur -35.3266 0.557354 -16.145
ltibia 38.8098
lfoot -21.4193 -10.6017
ltoes -1.9956
468
root -2.1156 17.5878 -6.7895 20.1717 30.987 -4.11915
lowerback 22.3166 3.59093 1.10693
upperback 8.94773 5.39034 6.51363
thorax -3.18279 2.64698 5.05591
lowerneck -20.2492 -7.52151 -1.91591
upperneck 6.53596 -9.98637 3.48558
head 5.46301 -4.67287 0.362237
rclavicle 7.15625e-014 -3.33958e-014
rhumerus -9.68793 9.79315 -63.2421
rradius 36.8288
rwrist -18.6571
rhand -23.8422 12.4579
rfingers 7.12502
rthumb 2.62978 -17.5057
lclavicle 7.15625e-014 -3.33958e-014
lhumerus -21.755 -16.7871 90.9609
lradius 54.0492
lwrist 12.7786
lhand -13.1056 31.444
lfingers 7.12502
lthumb 12.9914 61.0195
rfemur -51.5168 -2.36345 19.9145
rtibia 25.7071
rfoot 6.65768 6.65417
rtoes 4.29603
lfemur -34.6078 0.680409 -16.3009
ltibia 38.7371
lfoot -21.4517 -10.3523
ltoes -1.75909
469
root -2.08844 17.59 -6.84513 19.578 30.4352 -4.3536
lowerback 21.8009 3.62678 1.04343
upperback 8.76028 5.40218 6.43324
thorax -3.12757 2.65336 5.01837
lowerneck -20.3086 -7.66029 -2.2357
upperneck 6.5982 -10.1328 3.8335
head 5.53143 -4.72243 0.498344
rclavicle 7.95139e-014 -3.81667e-014
rhumerus -10.6105 9.00913 -63.7188
rradius 36.758
rwrist -18.4104
rhand -23.9495 12.2184
rfingers 7.12502
rthumb 2.52617 -17.7463
lclavicle 7.95139e-014 -3.81667e-014
lhumerus -22.0928 -16.6061 90.9516
lradius 53.4835
lwrist 12.6068
lhand -13.0449 31.7849
lfingers 7.12502
lthumb 13.0499 61.3566
rfemur -50.8774 -2.35793 20.094
rtibia 25.079
rfoot 7.25221 7.11133
rtoes 5.17252
lfemur -34.0462 0.9463 -16.3981
ltibia 38.6401
lfoot -21.3795 -10.0853
ltoes -1.40873
470
root -2.06296 17.5948 -6.90005 18.9051 29.825 -4.78582
lowerback 21.2722 3.67003 1.03078
upperback 8.60173 5.43525 6.39904
thorax -3.03428 2.67016 4.99935
lowerneck -20.4232 -7.73122 -2.47757
upperneck 6.63983 -10.205 4.16789
head 5.5961 -4.73384 0.625477
rclavicle 5.56597e-014 2.8625e-014
rhumerus -11.445 8.16799 -64.1576
rradius 36.7414
rwrist -17.673
rhand -24.182 11.5933
rfingers 7.12502
rthumb 2.30161 -18.374
lclavicle 5.56597e-014 2.8625e-014
lhumerus -22.3822 -16.348 90.8782
lradius 52.8901
lwrist 12.3997
lhand -13.0919 31.8278
lfingers 7.12502
lthumb 13.0046 61.4025
rfemur -50.2419 -2.2353 20.45
rtibia 24.4598
rfoot 7.9441 7.55224
rtoes 5.96682
lfemur -33.4604 1.35244 -16.3146
ltibia 38.4616
lfoot -21.2831 -9.88463
ltoes -1.06085
471
root -2.03895 17.6078 -6.94793 18.1363 29.3287 -5.08738
lowerback 20.9837 3.63172 0.939764
upperback 8.42688 5.35946 6.34272
thorax -3.07407 2.63306 5.01596
lowerneck -20.481 -7.72902 -2.63922
upperneck 6.70325 -10.1988 4.47414
head 5.65159 -4.7073 0.742307
rclavicle 1.27222e-014 5.40694e-014
rhumerus -12.2586 7.3393 -64.6265
rradius 36.7817
rwrist -17.5191
rhand -24.2562 11.3727
rfingers 7.12502
rthumb 2.22991 -18.5954
lclavicle 1.27222e-014 5.40694e-014
lhumerus -22.5728 -15.9235 90.7715
lradius 52.0819
lwrist 12.0793
lhand -13.2247 31.6456
lfingers 7.12502
lthumb 12.8766 61.2284
rfemur -49.3596 -2.16996 20.6525
rtibia 23.8131
rfoot 8.50901 7.75913
rtoes 7.20195
lfemur -32.6156 1.59536 -16.2819
ltibia 38.1589
lfoot -21.1487 -9.80759
ltoes 0.252646
472
root -2.01512 17.6306 -6.98235 17.4774 28.9412 -5.15366
lowerback 20.6771 3.56707 0.675785
upperback 8.23348 5.21647 6.24704
thorax -3.12901 2.5617 5.10472
lowerneck -20.5201 -7.70154 -2.64219
upperneck 6.74663 -10.1868 4.67666
head 5.68372 -4.68247 0.805006
rclavicle 1.90833e-014 -6.36111e-014
rhumerus -13.0149 6.35501 -65.0818
rradius 36.7791
rwrist -17.9176
rhand -23.698 11.4812
rfingers 7.12502
rthumb 2.76905 -18.4805
lclavicle 1.90833e-014 -6.36111e-014
lhumerus -22.7463 -15.551 90.6283
lradius 51.2166
lwrist 11.8106
lhand -13.2083 31.6814
lfingers 7.12502
lthumb 12.8924 61.2632
rfemur -48.3793 -2.12218 20.5909
rtibia 23.1416
rfoot 8.86777 7.697
rtoes 8.04259
lfemur -31.6767 1.73236 -16.41
ltibia 37.7656
lfoot -21.0533 -9.72041
ltoes 1.01369
473
root -1.99176 17.6569 -7.01046 16.9618 28.548 -5.10923
lowerback 20.1329 3.52157 0.278499
upperback 8.1256 5.06556 6.17811
thorax -2.9808 2.48377 5.31395
lowerneck -20.6883 -7.64493 -2.65006
upperneck 6.75215 -10.1211 4.81178
head 5.71779 -4.63547 0.85051
rclavicle -2.38542e-014 -9.70069e-014
rhumerus -13.6135 5.4881 -65.4544
rradius 36.7136
rwrist -17.9216
rhand -23.3448 11.4363
rfingers 7.12502
rthumb 3.11016 -18.5208
lclavicle -2.38542e-014 -9.70069e-014
lhumerus -22.8667 -15.1448 90.5019
lradius 50.4606
lwrist 11.4696
lhand -13.1336 32.1198
lfingers 7.12502
lthumb 12.9644 61.697
rfemur -47.4768 -1.90287 20.3238
rtibia 22.5147
rfoot 9.12648 7.46692
rtoes 8.30896
lfemur -30.7983 1.90166 -16.6231
ltibia 37.3344
lfoot -20.9897 -9.54194
ltoes 0.53551
474
root -1.97024 17.6761 -7.04564 16.4544 28.0945 -5.1227
lowerback 19.6333 3.46677 0.00147739
upperback 8.02729 4.92671 6.08451
thorax -2.83153 2.41248 5.42219
lowerneck -20.8811 -7.57938 -2.71188
upperneck 6.7238 -10.0296 4.96864
head 5.74767 -4.57584 0.914089
rclavicle -7.79236e-014 -1.59028e-015
rhumerus -14.191 4.67638 -65.9268
rradius 36.6095
rwrist -17.4098
rhand -23.5672 11.3395
rfingers 7.12502
rthumb 2.89537 -18.6206
lclavicle -7.79236e-014 -1.59028e-015
lhumerus -22.9987 -14.7077 90.3514
lradius 49.7769
lwrist 11.0577
lhand -13.1598 32.4968
lfingers 7.12502
lthumb 12.9392 62.0757
rfemur -46.6778 -1.62454 20.1166
rtibia 21.9528
rfoot 9.1554 7.23364
rtoes 7.67356
lfemur -30.0001 2.05127 -16.7943
ltibia 36.9124
lfoot -20.8472 -9.21672
ltoes 0.795791
475
root -1.95246 17.6891 -7.08438 15.9283 27.6791 -5.30805
lowerback 19.251 3.36782 -0.0857341
upperback 7.83053 4.77209 5.98047
thorax -2.82965 2.33738 5.40483
lowerneck -21.0266 -7.51276 -2.71953
upperneck 6.76742 -9.95643 5.12818
head 5.79156 -4.52256 0.968479
rclavicle -2.22639e-014 -9.30312e-014
rhumerus -14.8567 3.8999 -66.4972
rradius 36.4725
rwrist -16.9179
rhand -23.9267 11.3811
rfingers 7.12502
rthumb 2.54818 -18.5835
lclavicle -2.22639e-014 -9.30312e-014
lhumerus -23.2389 -14.2597 90.1237
lradius 49.1379
lwrist 10.6844
lhand -13.0512 32.6265
lfingers 7.12502
lthumb 13.0438 62.1987
rfemur -45.9899 -1.44097 20.1848
rtibia 21.4182
rfoot 8.93215 7.13378
rtoes 5.17498
lfemur -29.3494 2.19721 -16.8093
ltibia 36.5392
lfoot -20.7395 -8.69221
ltoes 0.819069
476
root -1.93622 17.7003 -7.11975 15.4853 27.3284 -5.40425
lowerback 18.8779 3.25524 -0.200823
upperback 7.58208 4.59448 5.81999
thorax -2.88228 2.25184 5.34471
lowerneck -21.1356 -7.4587 -2.61644
upperneck 6.86131 -9.93342 5.28465
head 5.84246 -4.49019 0.999584
rclavicle -6.59965e-014 -1.27222e-014
rhumerus -15.5922 3.20874 -67.022
rradius 36.4006
rwrist -16.7296
rhand -24.0717 11.4804
rfingers 7.12502
rthumb 2.40808 -18.4857
lclavicle -6.59965e-014 -1.27222e-014
lhumerus -23.4716 -13.8102 89.7952
lradius 48.4717
lwrist 10.2559
lhand -12.7479 32.7126
lfingers 7.12502
lthumb 13.3362 62.2658
rfemur -45.3455 -1.30879 20.1611
rtibia 20.8954
rfoot 8.6269 6.96757
rtoes 1.99752
lfemur -28.7816 2.33914 -16.888
ltibia 36.23
lfoot -20.6992 -8.31232
ltoes -0.757844
477
root -1.91871 17.7134 -7.15333 15.0348 27.0055 -5.47222
lowerback 18.484 3.18676 -0.342469
upperback 7.36408 4.47137 5.69906
thorax -2.90071 2.19237 5.33165
lowerneck -21.1622 -7.44052 -2.56808
upperneck 6.85672 -9.94378 5.46615
head 5.85431 -4.47741 1.04726
rclavicle 1.74931e-014 -7.95139e-016
rhumerus -16.3416 2.48718 -67.3723
rradius 36.4618
rwrist -16.5199
rhand -24.1272 11.402
rfingers 7.12502
rthumb 2.35451 -18.5647
lclavicle 1.74931e-014 -7.95139e-016
lhumerus -23.6329 -13.4565 89.5501
lradius 47.7572
lwrist 9.89394
lhand -12.5704 32.834
lfingers 7.12502
lthumb 13.5073 62.376
rfemur -44.6591 -1.17432 20.0809
rtibia 20.406
rfoot 8.11778 6.77334
rtoes -1.61456
lfemur -28.1787 2.39677 -16.9347
ltibia 35.9502
lfoot -20.5694 -8.22646
ltoes -2.07632
478
root -1.90033 17.7268 -7.18693 14.5431 26.6163 -5.76462
lowerback 18.0099 3.16114 -0.385469
upperback 7.16365 4.42721 5.72827
thorax -2.86977 2.17175 5.41049
lowerneck -21.1426 -7.46186 -2.78146
upperneck 6.81547 -9.94292 5.70252
head 5.86244 -4.46406 1.15509
rclavicle -6.12257e-014 -1.35174e-014
rhumerus -17.0587 1.94609 -67.5159
rradius 36.5858
rwrist -16.4161
rhand -24.223 11.2283
rfingers 7.12502
rthumb 2.26199 -18.7395
lclavicle -6.12257e-014 -1.35174e-014
lhumerus -23.8453 -13.1074 89.499
lradius 47.1011
lwrist 9.63773
lhand -12.6073 32.9314
lfingers 7.12502
lthumb 13.4718 62.4757
rfemur -44.0475 -1.07478 20.3488
rtibia 19.9873
rfoot 7.39531 6.73511
rtoes -5.34688
lfemur -27.6246 2.51205 -16.7734
ltibia 35.6525
lfoot -20.3734 -8.00329
ltoes -2.72674
479
root -1.88186 17.7393 -7.2178 14.1079 26.0961 -5.96253
lowerback 17.4985 3.15217 -0.623239
upperback 7.01503 4.37221 5.77982
thorax -2.77641 2.14241 5.63014
lowerneck -21.2428 -7.42674 -2.9805
upperneck 6.79194 -9.85518 5.839
head 5.88437 -4.41342 1.23621
rclavicle 5.64548e-014 -1.27222e-014
rhumerus -17.5501 1.69615 -67.6011
rradius 36.5617
rwrist -16.6125
rhand -24.3529 11.2131
rfingers 7.12502
rthumb 2.13657 -18.7559
lclavicle 5.64548e-014 -1.27222e-014
lhumerus -24.0292 -12.5455 89.4517
lradius 46.4843
lwrist 9.37591
lhand -12.6656 32.9068
lfingers 7.12502
lthumb 13.4155 62.4548
rfemur -43.4681 -0.932661 20.5533
rtibia 19.6626
rfoot 6.42975 6.64493
rtoes -8.46664
lfemur -27.0458 2.70203 -16.7396
ltibia 35.3297
lfoot -20.2317 -7.66945
ltoes -2.82461
480
root -1.86501 17.7577 -7.24039 13.6153 25.5502 -5.98142
lowerback 17.0621 3.13736 -1.11026
upperback 6.94755 4.27028 5.79848
thorax -2.64263 2.08573 5.96638
lowerneck -21.4558 -7.29602 -2.95248
upperneck 6.75494 -9.67494 5.81078
head 5.89479 -4.32288 1.23967
rclavicle -6.20208e-014 2.70347e-014
rhumerus -17.8572 1.48402 -67.7552
rradius 36.3836
rwrist -16.6483
rhand -24.4795 11.2074
rfingers 7.12502
rthumb 2.01423 -18.7628
lclavicle -6.20208e-014 2.70347e-014
lhumerus -24.1276 -11.8609 89.2999
lradius 45.8611
lwrist 9.17493
lhand -12.6362 32.8414
lfingers 7.12502
lthumb 13.4439 62.3876
rfemur -42.7306 -0.822369 20.5977
rtibia 19.4618
rfoot 5.41 6.35038
rtoes -10.1011
lfemur -26.2514 2.87037 -16.8499
ltibia 34.9814
lfoot -20.1178 -7.50467
ltoes -2.14316
